<mxfile host="app.diagrams.net" agent="Mozilla/5.0 (Windows NT 10.0; Win64; x64) AppleWebKit/537.36 (KHTML, like Gecko) Chrome/141.0.0.0 Safari/537.36 Edg/141.0.0.0" version="28.0.4">
  <diagram id="R2lEEEUBdFMjLlhIrx00" name="Page-1">
    <mxGraphModel dx="2055" dy="700" grid="1" gridSize="10" guides="1" tooltips="1" connect="1" arrows="1" fold="1" page="1" pageScale="1" pageWidth="850" pageHeight="1100" math="0" shadow="0" extFonts="Permanent Marker^https://fonts.googleapis.com/css?family=Permanent+Marker">
      <root>
        <mxCell id="0" />
        <mxCell id="1" parent="0" />
        <mxCell id="WDCaW94QrQYT6g_vUA-P-1" value="study" style="shape=rhombus;perimeter=rhombusPerimeter;whiteSpace=wrap;html=1;align=center;" vertex="1" parent="1">
          <mxGeometry x="305" y="280" width="120" height="50" as="geometry" />
        </mxCell>
        <mxCell id="WDCaW94QrQYT6g_vUA-P-2" value="work" style="shape=rhombus;perimeter=rhombusPerimeter;whiteSpace=wrap;html=1;align=center;" vertex="1" parent="1">
          <mxGeometry x="480" y="70" width="120" height="70" as="geometry" />
        </mxCell>
        <mxCell id="WDCaW94QrQYT6g_vUA-P-26" style="edgeStyle=orthogonalEdgeStyle;rounded=0;orthogonalLoop=1;jettySize=auto;html=1;exitX=1;exitY=0.5;exitDx=0;exitDy=0;entryX=0.5;entryY=0;entryDx=0;entryDy=0;" edge="1" parent="1" source="WDCaW94QrQYT6g_vUA-P-5" target="WDCaW94QrQYT6g_vUA-P-1">
          <mxGeometry relative="1" as="geometry" />
        </mxCell>
        <mxCell id="WDCaW94QrQYT6g_vUA-P-5" value="alumnus" style="whiteSpace=wrap;html=1;align=center;" vertex="1" parent="1">
          <mxGeometry x="180" y="150" width="100" height="40" as="geometry" />
        </mxCell>
        <mxCell id="WDCaW94QrQYT6g_vUA-P-6" value="phone number" style="ellipse;shape=doubleEllipse;margin=3;whiteSpace=wrap;html=1;align=center;" vertex="1" parent="1">
          <mxGeometry x="40" y="280" width="100" height="40" as="geometry" />
        </mxCell>
        <mxCell id="WDCaW94QrQYT6g_vUA-P-7" value="ID" style="ellipse;whiteSpace=wrap;html=1;align=center;fontStyle=4;" vertex="1" parent="1">
          <mxGeometry x="315" y="30" width="100" height="40" as="geometry" />
        </mxCell>
        <mxCell id="WDCaW94QrQYT6g_vUA-P-8" value="email" style="ellipse;whiteSpace=wrap;html=1;align=center;" vertex="1" parent="1">
          <mxGeometry x="180" y="210" width="100" height="40" as="geometry" />
        </mxCell>
        <mxCell id="WDCaW94QrQYT6g_vUA-P-9" value="name" style="ellipse;whiteSpace=wrap;html=1;align=center;" vertex="1" parent="1">
          <mxGeometry x="200" y="40" width="100" height="40" as="geometry" />
        </mxCell>
        <mxCell id="WDCaW94QrQYT6g_vUA-P-10" value="enrollment year" style="ellipse;whiteSpace=wrap;html=1;align=center;" vertex="1" parent="1">
          <mxGeometry x="50" y="170" width="100" height="40" as="geometry" />
        </mxCell>
        <mxCell id="WDCaW94QrQYT6g_vUA-P-11" value="date of birth" style="ellipse;whiteSpace=wrap;html=1;align=center;" vertex="1" parent="1">
          <mxGeometry x="50" y="110" width="100" height="40" as="geometry" />
        </mxCell>
        <mxCell id="WDCaW94QrQYT6g_vUA-P-12" value="gender" style="ellipse;whiteSpace=wrap;html=1;align=center;" vertex="1" parent="1">
          <mxGeometry x="60" y="30" width="100" height="40" as="geometry" />
        </mxCell>
        <mxCell id="WDCaW94QrQYT6g_vUA-P-13" value="major" style="ellipse;whiteSpace=wrap;html=1;align=center;" vertex="1" parent="1">
          <mxGeometry x="70" y="230" width="100" height="40" as="geometry" />
        </mxCell>
        <mxCell id="WDCaW94QrQYT6g_vUA-P-16" value="graduation year" style="ellipse;whiteSpace=wrap;html=1;align=center;" vertex="1" parent="1">
          <mxGeometry x="160" y="270" width="100" height="40" as="geometry" />
        </mxCell>
        <mxCell id="WDCaW94QrQYT6g_vUA-P-38" style="edgeStyle=orthogonalEdgeStyle;rounded=0;orthogonalLoop=1;jettySize=auto;html=1;exitX=1;exitY=0.5;exitDx=0;exitDy=0;" edge="1" parent="1" source="WDCaW94QrQYT6g_vUA-P-17" target="WDCaW94QrQYT6g_vUA-P-37">
          <mxGeometry relative="1" as="geometry" />
        </mxCell>
        <mxCell id="WDCaW94QrQYT6g_vUA-P-17" value="university" style="whiteSpace=wrap;html=1;align=center;" vertex="1" parent="1">
          <mxGeometry x="40" y="440" width="100" height="40" as="geometry" />
        </mxCell>
        <mxCell id="WDCaW94QrQYT6g_vUA-P-27" style="edgeStyle=orthogonalEdgeStyle;rounded=0;orthogonalLoop=1;jettySize=auto;html=1;exitX=0.5;exitY=0;exitDx=0;exitDy=0;entryX=0.5;entryY=1;entryDx=0;entryDy=0;" edge="1" parent="1" source="WDCaW94QrQYT6g_vUA-P-18" target="WDCaW94QrQYT6g_vUA-P-1">
          <mxGeometry relative="1" as="geometry" />
        </mxCell>
        <mxCell id="WDCaW94QrQYT6g_vUA-P-18" value="degree" style="whiteSpace=wrap;html=1;align=center;" vertex="1" parent="1">
          <mxGeometry x="390" y="450" width="100" height="40" as="geometry" />
        </mxCell>
        <mxCell id="WDCaW94QrQYT6g_vUA-P-19" value="program" style="ellipse;whiteSpace=wrap;html=1;align=center;" vertex="1" parent="1">
          <mxGeometry x="60" y="550" width="100" height="40" as="geometry" />
        </mxCell>
        <mxCell id="WDCaW94QrQYT6g_vUA-P-20" value="title" style="ellipse;whiteSpace=wrap;html=1;align=center;" vertex="1" parent="1">
          <mxGeometry x="140" y="490" width="100" height="40" as="geometry" />
        </mxCell>
        <mxCell id="WDCaW94QrQYT6g_vUA-P-22" value="name" style="ellipse;whiteSpace=wrap;html=1;align=center;" vertex="1" parent="1">
          <mxGeometry x="390" y="560" width="100" height="40" as="geometry" />
        </mxCell>
        <mxCell id="WDCaW94QrQYT6g_vUA-P-23" value="country" style="ellipse;whiteSpace=wrap;html=1;align=center;" vertex="1" parent="1">
          <mxGeometry x="300" y="510" width="100" height="40" as="geometry" />
        </mxCell>
        <mxCell id="WDCaW94QrQYT6g_vUA-P-24" value="ID" style="ellipse;whiteSpace=wrap;html=1;align=center;fontStyle=4;" vertex="1" parent="1">
          <mxGeometry x="450" y="510" width="100" height="40" as="geometry" />
        </mxCell>
        <mxCell id="WDCaW94QrQYT6g_vUA-P-25" value="ID" style="ellipse;whiteSpace=wrap;html=1;align=center;fontStyle=4;" vertex="1" parent="1">
          <mxGeometry x="-10" y="500" width="100" height="40" as="geometry" />
        </mxCell>
        <mxCell id="WDCaW94QrQYT6g_vUA-P-28" value="company" style="whiteSpace=wrap;html=1;align=center;" vertex="1" parent="1">
          <mxGeometry x="610" y="280" width="100" height="40" as="geometry" />
        </mxCell>
        <mxCell id="WDCaW94QrQYT6g_vUA-P-29" value="name" style="ellipse;whiteSpace=wrap;html=1;align=center;" vertex="1" parent="1">
          <mxGeometry x="680" y="380" width="100" height="40" as="geometry" />
        </mxCell>
        <mxCell id="WDCaW94QrQYT6g_vUA-P-30" value="functional area" style="ellipse;whiteSpace=wrap;html=1;align=center;" vertex="1" parent="1">
          <mxGeometry x="730" y="160" width="100" height="40" as="geometry" />
        </mxCell>
        <mxCell id="WDCaW94QrQYT6g_vUA-P-31" value="location" style="ellipse;whiteSpace=wrap;html=1;align=center;" vertex="1" parent="1">
          <mxGeometry x="720" y="310" width="100" height="40" as="geometry" />
        </mxCell>
        <mxCell id="WDCaW94QrQYT6g_vUA-P-32" value="type" style="ellipse;whiteSpace=wrap;html=1;align=center;" vertex="1" parent="1">
          <mxGeometry x="650" y="210" width="100" height="40" as="geometry" />
        </mxCell>
        <mxCell id="WDCaW94QrQYT6g_vUA-P-33" value="ID" style="ellipse;whiteSpace=wrap;html=1;align=center;fontStyle=4;" vertex="1" parent="1">
          <mxGeometry x="560" y="400" width="100" height="40" as="geometry" />
        </mxCell>
        <mxCell id="WDCaW94QrQYT6g_vUA-P-39" style="edgeStyle=orthogonalEdgeStyle;rounded=0;orthogonalLoop=1;jettySize=auto;html=1;exitX=1;exitY=0.5;exitDx=0;exitDy=0;entryX=0;entryY=0.5;entryDx=0;entryDy=0;" edge="1" parent="1" source="WDCaW94QrQYT6g_vUA-P-37" target="WDCaW94QrQYT6g_vUA-P-18">
          <mxGeometry relative="1" as="geometry" />
        </mxCell>
        <mxCell id="WDCaW94QrQYT6g_vUA-P-37" value="offer" style="shape=rhombus;perimeter=rhombusPerimeter;whiteSpace=wrap;html=1;align=center;" vertex="1" parent="1">
          <mxGeometry x="210" y="420" width="120" height="60" as="geometry" />
        </mxCell>
        <mxCell id="WDCaW94QrQYT6g_vUA-P-40" value="" style="shape=link;html=1;rounded=0;width=6;exitX=0.5;exitY=0;exitDx=0;exitDy=0;entryX=0;entryY=0.5;entryDx=0;entryDy=0;" edge="1" parent="1" source="WDCaW94QrQYT6g_vUA-P-5" target="WDCaW94QrQYT6g_vUA-P-2">
          <mxGeometry relative="1" as="geometry">
            <mxPoint x="223" y="127.41000000000005" as="sourcePoint" />
            <mxPoint x="460" y="132.59" as="targetPoint" />
            <Array as="points" />
          </mxGeometry>
        </mxCell>
        <mxCell id="WDCaW94QrQYT6g_vUA-P-41" value="M" style="resizable=0;html=1;whiteSpace=wrap;align=left;verticalAlign=bottom;" connectable="0" vertex="1" parent="WDCaW94QrQYT6g_vUA-P-40">
          <mxGeometry x="-1" relative="1" as="geometry" />
        </mxCell>
        <mxCell id="WDCaW94QrQYT6g_vUA-P-42" value="N" style="resizable=0;html=1;whiteSpace=wrap;align=right;verticalAlign=bottom;" connectable="0" vertex="1" parent="WDCaW94QrQYT6g_vUA-P-40">
          <mxGeometry x="1" relative="1" as="geometry">
            <mxPoint x="40" y="-23" as="offset" />
          </mxGeometry>
        </mxCell>
        <mxCell id="WDCaW94QrQYT6g_vUA-P-43" value="" style="shape=link;html=1;rounded=0;exitX=0.5;exitY=1;exitDx=0;exitDy=0;entryX=0;entryY=0.25;entryDx=0;entryDy=0;" edge="1" parent="1" source="WDCaW94QrQYT6g_vUA-P-2" target="WDCaW94QrQYT6g_vUA-P-28">
          <mxGeometry relative="1" as="geometry">
            <mxPoint x="450" y="260" as="sourcePoint" />
            <mxPoint x="610" y="260" as="targetPoint" />
          </mxGeometry>
        </mxCell>
        <mxCell id="WDCaW94QrQYT6g_vUA-P-44" value="M" style="resizable=0;html=1;whiteSpace=wrap;align=left;verticalAlign=bottom;" connectable="0" vertex="1" parent="WDCaW94QrQYT6g_vUA-P-43">
          <mxGeometry x="-1" relative="1" as="geometry" />
        </mxCell>
        <mxCell id="WDCaW94QrQYT6g_vUA-P-45" value="N" style="resizable=0;html=1;whiteSpace=wrap;align=right;verticalAlign=bottom;" connectable="0" vertex="1" parent="WDCaW94QrQYT6g_vUA-P-43">
          <mxGeometry x="1" relative="1" as="geometry" />
        </mxCell>
      </root>
    </mxGraphModel>
  </diagram>
</mxfile>
